<svg xmlns="http://www.w3.org/2000/svg" xmlns:xlink="http://www.w3.org/1999/xlink" viewBox="0,0,256,256" width="64px" height="64px" fill-rule="nonzero"><defs><linearGradient x1="32" y1="55" x2="32" y2="9" gradientUnits="userSpaceOnUse" id="color-1"><stop offset="0" stop-color="#b405fc"></stop><stop offset="1" stop-color="#b405fc"></stop></linearGradient><linearGradient x1="32" y1="30.509" x2="32" y2="23" gradientUnits="userSpaceOnUse" id="color-2"><stop offset="0" stop-color="#b405fc"></stop><stop offset="1" stop-color="#b405fc"></stop></linearGradient></defs><g fill="none" fill-rule="nonzero" stroke="none" stroke-width="1" stroke-linecap="butt" stroke-linejoin="miter" stroke-miterlimit="10" stroke-dasharray="" stroke-dashoffset="0" font-family="none" font-weight="none" font-size="none" text-anchor="none" style="mix-blend-mode: normal"><g transform="scale(4,4)"><path d="M50,9h-36c-2.8,0 -5,2.2 -5,5v36c0,2.8 2.2,5 5,5h36c2.8,0 5,-2.2 5,-5v-36c0,-2.8 -2.2,-5 -5,-5zM53,50c0,1.7 -1.3,3 -3,3h-36c-1.7,0 -3,-1.3 -3,-3v-36c0,-1.7 1.3,-3 3,-3h36c1.7,0 3,1.3 3,3zM45,19h-26c-1.654,0 -3,1.346 -3,3v20c0,1.654 1.346,3 3,3h26c1.654,0 3,-1.346 3,-3v-20c0,-1.654 -1.346,-3 -3,-3zM44.87,21l-11.455,11.455c-0.679,0.68 -1.865,0.681 -2.546,0l-11.455,-11.455zM18,41.586v-19.172l9.586,9.586zM19.414,43l9.586,-9.586l0.455,0.455c0.717,0.718 1.672,1.113 2.687,1.113c1.016,0 1.97,-0.395 2.688,-1.113l0.323,-0.323l9.692,9.454zM46,41.333l-9.433,-9.201l9.433,-9.434zM27,41h10v-2h-10z" fill="url(#color-1)"></path><path d="M25.691,23h12.618c0.535,0 0.802,0.646 0.424,1.024l-6.309,6.309c-0.234,0.234 -0.614,0.234 -0.849,0l-6.309,-6.309c-0.377,-0.378 -0.11,-1.024 0.425,-1.024z" fill="url(#color-2)"></path></g></g></svg>